<svg xmlns="http://www.w3.org/2000/svg" xmlns:xlink="http://www.w3.org/1999/xlink" fill="none" version="1.1" width="120" height="54" viewBox="0 0 120 54"><g><g><g><path d="M101.8216142654419,10.439122764330785C105.2749242654419,9.178336764330785,107.2131542654419,9.063465764330786,110.66588426544189,10.439122764330785C110.66588426544189,10.439122764330785,110.66588426544189,42.614987764330785,110.66588426544189,42.614987764330785C107.2106442654419,43.71908776433079,105.27628426544189,43.79838776433078,101.8216142654419,42.614987764330785C101.8216142654419,42.614987764330785,101.8216142654419,10.439122764330785,101.8216142654419,10.439122764330785C101.8216142654419,10.439122764330785,101.8216142654419,10.439122764330785,101.8216142654419,10.439122764330785Z" fill="#000000" fill-opacity="1"/></g><g><path d="M97.4083423904419,33.58616866149902C97.4083423904419,33.58616866149902,79.71981239044189,33.58616866149902,79.71981239044189,33.58616866149902C79.8787723904419,35.02016866149902,80.26173239044189,36.08826866149902,80.8687423904419,36.790668661499026C81.72134239044189,37.80016866149902,82.8340423904419,38.30506866149902,84.2069423904419,38.30506866149902C85.07404239044189,38.30506866149902,85.89774239044189,38.085568661499025,86.67814239044189,37.646568661499025C87.1551423904419,37.368568661499026,87.66814239044189,36.87846866149903,88.2172423904419,36.17616866149902C89.2505423904419,34.85466866149902,96.6496423904419,35.195768661499024,96.9098423904419,36.988168661499024C95.5803423904419,39.329368661499025,93.9762423904419,41.011968661499026,92.0975423904419,42.03626866149902C90.21884239044189,43.04586866149903,87.52364239044189,43.550668661499024,84.0118423904419,43.550668661499024C80.9626423904419,43.550668661499024,78.5636823904419,43.11906866149903,76.8150623904419,42.25576866149902C75.06643239044189,41.37786866149902,73.6140523904419,39.99506866149902,72.4579423904419,38.10756866149902C71.31627539044189,36.20526866149902,70.7454423904419,33.974068661499025,70.7454423904419,31.41336866149902C70.7454423904419,27.769988661499024,71.89433239044189,24.821618661499024,74.1921223904419,22.568278661499022C76.5043523904419,20.314938661499024,79.69090239044189,19.188268661499023,83.75174239044189,19.188268661499023C87.04674239044189,19.188268661499023,89.6479423904419,19.693074661499022,91.5555423904419,20.702688661499025C93.4631423904419,21.712298661499023,94.9155423904419,23.175508661499023,95.91274239044189,25.092308661499025C96.9098423904419,27.009108661499024,97.4083423904419,29.503868661499023,97.4083423904419,32.576568661499024C97.4083423904419,32.576568661499024,97.4083423904419,33.58616866149902,97.4083423904419,33.58616866149902C97.4083423904419,33.58616866149902,97.4083423904419,33.58616866149902,97.4083423904419,33.58616866149902ZM88.4340423904419,29.30636866149902C88.2605423904419,27.57975866149902,87.7981423904419,26.343358661499025,87.04674239044189,25.597118661499024C86.3096423904419,24.850878661499024,85.3341423904419,24.477768661499024,84.12034239044189,24.477768661499024C82.7184423904419,24.477768661499024,81.59854239044189,25.041088661499025,80.76034239044189,26.167768661499025C80.2256123904419,26.87009866149902,79.8859923904419,27.916298661499024,79.7414723904419,29.30636866149902C79.7414723904419,29.30636866149902,88.4340423904419,29.30636866149902,88.4340423904419,29.30636866149902C88.4340423904419,29.30636866149902,88.4340423904419,29.30636866149902,88.4340423904419,29.30636866149902Z" fill="#000000" fill-opacity="1"/></g><g><path d="M41.147786140441895,31.435268661499023C41.147786140441895,27.879718661499023,42.33279614044189,24.953298661499023,44.702836140441896,22.656068661499024C47.07285614044189,20.344198661499025,50.273836140441894,19.188268661499023,54.305786140441896,19.188268661499023C58.915786140441895,19.188268661499023,62.39858614044189,20.541738661499025,64.7541861404419,23.248668661499025C66.6471861404419,25.428858661499024,67.5938861404419,28.113828661499024,67.5938861404419,31.303668661499024C67.5938861404419,34.888468661499026,66.4159861404419,37.82946866149902,64.06038614044189,40.12676866149903C61.7193861404419,42.40936866149902,58.4749861404419,43.550668661499024,54.32748614044189,43.550668661499024C50.627906140441894,43.550668661499024,47.636456140441894,42.59956866149902,45.3531361404419,40.69746866149902C42.5495661404419,38.34166866149903,41.147786140441895,35.254268661499026,41.147786140441895,31.435268661499023C41.147786140441895,31.435268661499023,41.147786140441895,31.435268661499023,41.147786140441895,31.435268661499023ZM49.99204614044189,31.41336866149902C49.99204614044189,33.491168661499024,50.40390614044189,35.02746866149902,51.2276861404419,36.02256866149902C52.065786140441894,37.017468661499024,53.113586140441896,37.514968661499026,54.37078614044189,37.514968661499026C55.64258614044189,37.514968661499026,56.683086140441894,37.024768661499024,57.49228614044189,36.04436866149902C58.31598614044189,35.063968661499025,58.727886140441896,33.491168661499024,58.727886140441896,31.325568661499023C58.727886140441896,29.30636866149902,58.31598614044189,27.806558661499025,57.49228614044189,26.826218661499023C56.668586140441896,25.83123866149902,55.6497861404419,25.333748661499023,54.435886140441895,25.333748661499023C53.149686140441894,25.333748661499023,52.0874861404419,25.838548661499026,51.249286140441896,26.848168661499024C50.4111361404419,27.843138661499026,49.99204614044189,29.364868661499024,49.99204614044189,31.41336866149902C49.99204614044189,31.41336866149902,49.99204614044189,31.41336866149902,49.99204614044189,31.41336866149902Z" fill="#000000" fill-opacity="1"/></g><g><path d="M36.94993301544189,42.339334286499025C32.62673301544189,43.57793428649902,30.230233015441893,43.665934286499024,26.761733015441894,42.339334286499025C26.761733015441894,42.339334286499025,9.333333015441895,13.214144286499023,9.333333015441895,13.214144286499023C13.449353015441893,10.818097286499023,15.684393015441895,10.570275286499024,19.456533015441895,13.214144286499023C19.456533015441895,13.214144286499023,36.94993301544189,42.339334286499025,36.94993301544189,42.339334286499025C36.94993301544189,42.339334286499025,36.94993301544189,42.339334286499025,36.94993301544189,42.339334286499025ZM9.333333015441895,42.339334286499025C9.333333015441895,42.339334286499025,9.333333015441895,15.979594286499022,9.333333015441895,15.979594286499022C9.333333015441895,15.979594286499022,17.679003015441893,29.828834286499024,17.679003015441893,29.828834286499024C17.679003015441893,29.828834286499024,17.679003015441893,42.339334286499025,17.679003015441893,42.339334286499025C14.742863015441895,43.56353428649902,12.958803015441895,43.72103428649903,9.333333015441895,42.339334286499025C9.333333015441895,42.339334286499025,9.333333015441895,42.339334286499025,9.333333015441895,42.339334286499025ZM36.94993301544189,13.214144286499023C36.94993301544189,13.214144286499023,36.94993301544189,39.57383428649902,36.94993301544189,39.57383428649902C36.94993301544189,39.57383428649902,28.604233015441896,25.658734286499023,28.604233015441896,25.658734286499023C28.604233015441896,25.658734286499023,28.604233015441896,13.214144286499023,28.604233015441896,13.214144286499023C32.04003301544189,11.073060286499024,33.86303301544189,11.039598286499023,36.94993301544189,13.214144286499023C36.94993301544189,13.214144286499023,36.94993301544189,13.214144286499023,36.94993301544189,13.214144286499023Z" fill="#000000" fill-opacity="1"/></g></g></g></svg>